<svg xmlns="http://www.w3.org/2000/svg" xmlns:xlink="http://www.w3.org/1999/xlink" width="500" zoomAndPan="magnify" viewBox="0 0 375 374.999991" height="500" preserveAspectRatio="xMidYMid meet" version="1.0"><defs><filter x="0%" y="0%" width="100%" height="100%" id="5a18dae71a"><feColorMatrix values="0 0 0 0 1 0 0 0 0 1 0 0 0 0 1 0 0 0 1 0" color-interpolation-filters="sRGB"/></filter><g/><mask id="05927d6439"><g filter="url(#5a18dae71a)"><rect x="-37.5" width="450" fill="#000000" y="-37.499999" height="449.999989" fill-opacity="0.15"/></g></mask><clipPath id="b9ab8c082d"><path d="M 0.695312 7 L 154 7 L 154 204 L 0.695312 204 Z M 0.695312 7 " clip-rule="nonzero"/></clipPath><clipPath id="b50182ab9d"><path d="M 136 79 L 314.195312 79 L 314.195312 208 L 136 208 Z M 136 79 " clip-rule="nonzero"/></clipPath><clipPath id="f7aa816299"><rect x="0" width="316" y="0" height="316"/></clipPath></defs><rect x="-37.5" width="450" fill="#ffffff" y="-37.499999" height="449.999989" fill-opacity="1"/><rect x="-37.5" width="450" fill="#ffffff" y="-37.499999" height="449.999989" fill-opacity="1"/><g mask="url(#05927d6439)"><g transform="matrix(1, 0, 0, 1, 30, 30)"><g clip-path="url(#f7aa816299)"><g clip-path="url(#b9ab8c082d)"><path fill="#000000" d="M 11.382812 29.195312 C 11.382812 23.292969 16.167969 18.507812 22.070312 18.507812 L 153.882812 18.507812 L 153.882812 11.382812 C 153.882812 9.417969 152.285156 7.820312 150.320312 7.820312 L 4.257812 7.820312 C 2.292969 7.820312 0.695312 9.417969 0.695312 11.382812 L 0.695312 200.195312 C 0.695312 202.164062 2.292969 203.757812 4.257812 203.757812 L 11.382812 203.757812 Z M 11.382812 29.195312 " fill-opacity="1" fill-rule="nonzero"/></g><path fill="#000000" d="M 232.257812 121.820312 C 232.257812 122.753906 232.167969 123.683594 231.984375 124.601562 C 231.800781 125.519531 231.53125 126.410156 231.171875 127.273438 C 230.816406 128.136719 230.375 128.960938 229.855469 129.738281 C 229.335938 130.515625 228.746094 131.234375 228.082031 131.894531 C 227.421875 132.558594 226.703125 133.148438 225.925781 133.667969 C 225.148438 134.1875 224.324219 134.628906 223.460938 134.984375 C 222.597656 135.34375 221.707031 135.613281 220.789062 135.796875 C 219.871094 135.980469 218.941406 136.070312 218.007812 136.070312 C 217.070312 136.070312 216.144531 135.980469 215.226562 135.796875 C 214.308594 135.613281 213.417969 135.34375 212.554688 134.984375 C 211.691406 134.628906 210.867188 134.1875 210.089844 133.667969 C 209.3125 133.148438 208.59375 132.558594 207.929688 131.894531 C 207.269531 131.234375 206.679688 130.515625 206.160156 129.738281 C 205.640625 128.960938 205.199219 128.136719 204.84375 127.273438 C 204.484375 126.410156 204.214844 125.519531 204.03125 124.601562 C 203.847656 123.683594 203.757812 122.753906 203.757812 121.820312 C 203.757812 120.882812 203.847656 119.957031 204.03125 119.039062 C 204.214844 118.121094 204.484375 117.230469 204.84375 116.367188 C 205.199219 115.503906 205.640625 114.679688 206.160156 113.902344 C 206.679688 113.125 207.269531 112.40625 207.929688 111.742188 C 208.59375 111.082031 209.3125 110.492188 210.089844 109.972656 C 210.867188 109.453125 211.691406 109.011719 212.554688 108.65625 C 213.417969 108.296875 214.308594 108.027344 215.226562 107.84375 C 216.144531 107.660156 217.070312 107.570312 218.007812 107.570312 C 218.941406 107.570312 219.871094 107.660156 220.789062 107.84375 C 221.707031 108.027344 222.597656 108.296875 223.460938 108.65625 C 224.324219 109.011719 225.148438 109.453125 225.925781 109.972656 C 226.703125 110.492188 227.421875 111.082031 228.082031 111.742188 C 228.746094 112.40625 229.335938 113.125 229.855469 113.902344 C 230.375 114.679688 230.816406 115.503906 231.171875 116.367188 C 231.53125 117.230469 231.800781 118.121094 231.984375 119.039062 C 232.167969 119.957031 232.257812 120.882812 232.257812 121.820312 Z M 232.257812 121.820312 " fill-opacity="1" fill-rule="nonzero"/><path fill="#000000" d="M 68.382812 207.320312 C 68.382812 191.605469 81.167969 178.820312 96.882812 178.820312 L 128.945312 178.820312 L 128.945312 93.320312 C 128.945312 81.53125 138.53125 71.945312 150.320312 71.945312 L 171.695312 71.945312 L 171.695312 29.195312 C 171.695312 27.230469 170.101562 25.632812 168.132812 25.632812 L 22.070312 25.632812 C 20.105469 25.632812 18.507812 27.230469 18.507812 29.195312 L 18.507812 218.007812 C 18.507812 219.976562 20.105469 221.570312 22.070312 221.570312 L 68.382812 221.570312 Z M 64.820312 54.132812 L 125.382812 54.132812 C 127.347656 54.132812 128.945312 55.730469 128.945312 57.695312 C 128.945312 59.660156 127.347656 61.257812 125.382812 61.257812 L 64.820312 61.257812 C 62.855469 61.257812 61.257812 59.660156 61.257812 57.695312 C 61.257812 55.730469 62.855469 54.132812 64.820312 54.132812 Z M 47.007812 79.070312 L 118.257812 79.070312 C 120.222656 79.070312 121.820312 80.667969 121.820312 82.632812 C 121.820312 84.597656 120.222656 86.195312 118.257812 86.195312 L 47.007812 86.195312 C 45.042969 86.195312 43.445312 84.597656 43.445312 82.632812 C 43.445312 80.667969 45.042969 79.070312 47.007812 79.070312 Z M 47.007812 100.445312 L 118.257812 100.445312 C 120.222656 100.445312 121.820312 102.042969 121.820312 104.007812 C 121.820312 105.972656 120.222656 107.570312 118.257812 107.570312 L 47.007812 107.570312 C 45.042969 107.570312 43.445312 105.972656 43.445312 104.007812 C 43.445312 102.042969 45.042969 100.445312 47.007812 100.445312 Z M 47.007812 121.820312 L 118.257812 121.820312 C 120.222656 121.820312 121.820312 123.417969 121.820312 125.382812 C 121.820312 127.347656 120.222656 128.945312 118.257812 128.945312 L 47.007812 128.945312 C 45.042969 128.945312 43.445312 127.347656 43.445312 125.382812 C 43.445312 123.417969 45.042969 121.820312 47.007812 121.820312 Z M 47.007812 143.195312 L 118.257812 143.195312 C 120.222656 143.195312 121.820312 144.792969 121.820312 146.757812 C 121.820312 148.722656 120.222656 150.320312 118.257812 150.320312 L 47.007812 150.320312 C 45.042969 150.320312 43.445312 148.722656 43.445312 146.757812 C 43.445312 144.792969 45.042969 143.195312 47.007812 143.195312 Z M 47.007812 164.570312 L 118.257812 164.570312 C 120.222656 164.570312 121.820312 166.164062 121.820312 168.132812 C 121.820312 170.101562 120.222656 171.695312 118.257812 171.695312 L 47.007812 171.695312 C 45.042969 171.695312 43.445312 170.101562 43.445312 168.132812 C 43.445312 166.164062 45.042969 164.570312 47.007812 164.570312 Z M 57.695312 193.070312 L 47.007812 193.070312 C 45.042969 193.070312 43.445312 191.476562 43.445312 189.507812 C 43.445312 187.539062 45.042969 185.945312 47.007812 185.945312 L 57.695312 185.945312 C 59.660156 185.945312 61.257812 187.539062 61.257812 189.507812 C 61.257812 191.476562 59.660156 193.070312 57.695312 193.070312 Z M 57.695312 193.070312 " fill-opacity="1" fill-rule="nonzero"/><g clip-path="url(#b50182ab9d)"><path fill="#000000" d="M 299.945312 79.070312 L 150.320312 79.070312 C 142.460938 79.070312 136.070312 85.460938 136.070312 93.320312 L 136.070312 178.820312 L 195.398438 178.820312 L 216.96875 157.410156 L 184.296875 136.625 C 183.113281 135.878906 181.609375 135.886719 180.4375 136.648438 L 143.195312 160.917969 L 143.195312 93.320312 C 143.195312 89.390625 146.390625 86.195312 150.320312 86.195312 L 299.945312 86.195312 C 303.875 86.195312 307.070312 89.390625 307.070312 93.320312 L 307.070312 174.898438 L 255.878906 133.308594 C 254.46875 132.160156 252.414062 132.261719 251.125 133.542969 L 205.515625 178.820312 L 218.007812 178.820312 C 233.722656 178.820312 246.507812 191.605469 246.507812 207.320312 L 299.945312 207.320312 C 307.804688 207.320312 314.195312 200.929688 314.195312 193.070312 L 314.195312 93.320312 C 314.195312 85.460938 307.804688 79.070312 299.945312 79.070312 Z M 299.945312 79.070312 " fill-opacity="1" fill-rule="nonzero"/></g><path fill="#000000" d="M 218.007812 185.945312 L 96.882812 185.945312 C 85.09375 185.945312 75.507812 195.53125 75.507812 207.320312 L 75.507812 285.695312 C 75.507812 297.484375 85.09375 307.070312 96.882812 307.070312 L 218.007812 307.070312 C 229.796875 307.070312 239.382812 297.484375 239.382812 285.695312 L 239.382812 207.320312 C 239.382812 195.53125 229.796875 185.945312 218.007812 185.945312 Z M 189.0625 254.660156 L 142.453125 279.207031 C 141.097656 279.925781 139.625 280.28125 138.152344 280.28125 C 136.511719 280.28125 134.875 279.835938 133.398438 278.949219 C 130.609375 277.261719 128.945312 274.3125 128.945312 271.058594 L 128.945312 221.960938 C 128.945312 218.707031 130.609375 215.757812 133.398438 214.070312 C 136.1875 212.390625 139.570312 212.289062 142.453125 213.8125 L 189.0625 238.359375 C 192.097656 239.957031 193.980469 243.082031 193.980469 246.511719 C 193.980469 249.941406 192.097656 253.066406 189.0625 254.664062 Z M 189.0625 254.660156 " fill-opacity="1" fill-rule="nonzero"/></g></g></g><g fill="#000000" fill-opacity="1"><g transform="translate(10.265629, 200.249987)"><g><path d="M 47.078125 0 L 35.15625 0 L 32.515625 -4.59375 L 14.84375 -4.59375 L 12.203125 0 L 0.296875 0 L 18.21875 -28.015625 L 29.140625 -28.015625 Z M 28.5625 -11.53125 L 23.6875 -20.015625 L 18.8125 -11.53125 Z M 28.5625 -11.53125 "/></g></g></g><g fill="#000000" fill-opacity="1"><g transform="translate(57.624287, 200.249987)"><g><path d="M 44.703125 0 L 30.71875 0 L 14.890625 -18.96875 L 14.890625 0 L 3.125 0 L 3.125 -28.03125 L 17.109375 -28.03125 L 32.953125 -9.15625 L 32.953125 -28.03125 L 44.703125 -28.03125 Z M 44.703125 0 "/></g></g></g><g fill="#000000" fill-opacity="1"><g transform="translate(105.45165, 200.249987)"><g><path d="M 14.890625 0 L 3.125 0 L 3.125 -28.03125 L 14.890625 -28.03125 Z M 14.890625 0 "/></g></g></g><g fill="#000000" fill-opacity="1"><g transform="translate(123.457703, 200.249987)"><g><path d="M 56.40625 0 L 44.65625 0 L 44.65625 -17.875 L 34.140625 0 L 25.375 0 L 14.890625 -17.875 L 14.890625 0 L 3.125 0 L 3.125 -28.03125 L 17.09375 -28.03125 L 29.765625 -8.015625 L 42.421875 -28.03125 L 56.40625 -28.03125 Z M 56.40625 0 "/></g></g></g><g fill="#000000" fill-opacity="1"><g transform="translate(182.983135, 200.249987)"><g><path d="M 47.078125 0 L 35.15625 0 L 32.515625 -4.59375 L 14.84375 -4.59375 L 12.203125 0 L 0.296875 0 L 18.21875 -28.015625 L 29.140625 -28.015625 Z M 28.5625 -11.53125 L 23.6875 -20.015625 L 18.8125 -11.53125 Z M 28.5625 -11.53125 "/></g></g></g><g fill="#000000" fill-opacity="1"><g transform="translate(224.482785, 200.249987)"><g><path d="M 23.90625 0 L 12.15625 0 L 12.15625 -21.09375 L 1.171875 -21.09375 L 1.171875 -28.03125 L 34.890625 -28.03125 L 34.890625 -21.09375 L 23.90625 -21.09375 Z M 23.90625 0 "/></g></g></g><g fill="#000000" fill-opacity="1"><g transform="translate(260.533938, 200.249987)"><g><path d="M 14.890625 0 L 3.125 0 L 3.125 -28.03125 L 14.890625 -28.03125 Z M 14.890625 0 "/></g></g></g><g fill="#000000" fill-opacity="1"><g transform="translate(278.53998, 200.249987)"><g><path d="M 21.1875 0.609375 C 14.257812 0.609375 9.164062 -0.816406 5.90625 -3.671875 C 3.007812 -6.179688 1.5625 -9.617188 1.5625 -13.984375 C 1.5625 -18.347656 3.007812 -21.789062 5.90625 -24.3125 C 9.164062 -27.15625 14.257812 -28.578125 21.1875 -28.578125 C 25.25 -28.578125 28.609375 -28.109375 31.265625 -27.171875 C 33.921875 -26.242188 35.984375 -24.972656 37.453125 -23.359375 C 38.929688 -21.742188 39.910156 -19.894531 40.390625 -17.8125 L 28.03125 -17.8125 C 26.789062 -19.988281 24.507812 -21.078125 21.1875 -21.078125 C 18.351562 -21.078125 16.265625 -20.253906 14.921875 -18.609375 C 13.859375 -17.304688 13.328125 -15.765625 13.328125 -13.984375 C 13.328125 -12.203125 13.859375 -10.660156 14.921875 -9.359375 C 16.265625 -7.710938 18.351562 -6.890625 21.1875 -6.890625 C 24.507812 -6.890625 26.789062 -7.984375 28.03125 -10.171875 L 40.390625 -10.171875 C 39.910156 -8.078125 38.929688 -6.222656 37.453125 -4.609375 C 35.984375 -2.992188 33.921875 -1.71875 31.265625 -0.78125 C 28.609375 0.144531 25.25 0.609375 21.1875 0.609375 Z M 21.1875 0.609375 "/></g></g></g><g fill="#000000" fill-opacity="1"><g transform="translate(317.364196, 200.249987)"><g><path d="M 47.078125 0 L 35.15625 0 L 32.515625 -4.59375 L 14.84375 -4.59375 L 12.203125 0 L 0.296875 0 L 18.21875 -28.015625 L 29.140625 -28.015625 Z M 28.5625 -11.53125 L 23.6875 -20.015625 L 18.8125 -11.53125 Z M 28.5625 -11.53125 "/></g></g></g></svg>